{"title":"See No Evil - S01E03 - Neighborhood Watch","uid":15897843,"size":389901750,"categoryP":"video","categoryS":"tv_shows","magnet":"?xt=urn:btih:6b2cecc8874e40baf2768431a1324ce927751a57&amp;dn=See+No+Evil+-+S01E03+-+Neighborhood+Watch&amp;tr=udp%3A%2F%2Ftracker.leechers-paradise.org%3A6969&amp;tr=udp%3A%2F%2Fzer0day.ch%3A1337&amp;tr=udp%3A%2F%2Fopen.demonii.com%3A1337&amp;tr=udp%3A%2F%2Ftracker.coppersurfer.tk%3A6969&amp;tr=udp%3A%2F%2Fexodus.desync.com%3A6969","seeders":10,"leechers":4,"uploader":"Bullrout","files":1,"time":1474977876,"description":"See No Evil - S01E03 - Neighborhood Watch\r\n\r\nPensacola, FL.- two murders, one witness:Police investigate the strange disappearance of a reporter and exposed to an addictive world of gaming.Across state a mom vanishes after a party. Detectives have no leads until cameras begin to spill their secrets.\r\n\r\nComplete name : See No Evil - S01E03 - Neighborhood Watch.mp4\r\nFormat : MPEG-4\r\nFormat profile : Base Media / Version 2\r\nCodec ID : mp42 (mp42/isom/avc1)\r\nFile size : 372 MiB\r\nDuration : 47 min 11 s\r\nOverall bit rate mode : Variable\r\nOverall bit rate : 1 102 kb/s\r\nWriting application : TMPGEnc Video Mastering Works 5 Version. 5.0.5.32\r\n\r\nVideo\r\nID : 2\r\nFormat : AVC\r\nFormat/Info : Advanced Video Codec\r\nFormat profile :   \r\nFormat settings, CABAC : Yes\r\nFormat settings, ReFrames : 3 frames\r\nCodec ID : avc1\r\nCodec ID/Info : Advanced Video Coding\r\nDuration : 47 min 11 s\r\nBit rate mode : Variable\r\nBit rate : 970 kb/s\r\nMaximum bit rate : 1 000 kb/s\r\nWidth : 720 pixels\r\nHeight : 404 pixels\r\nDisplay aspect ratio : 16:9\r\nOriginal display aspect ratio : 16:9\r\nFrame rate mode : Constant\r\nFrame rate : 25.000 FPS\r\nStandard : PAL\r\nColor space : YUV\r\nChroma subsampling : 4:2:0\r\nBit depth : 8 bits\r\nScan type : Progressive\r\nBits/(Pixel*Frame) : 0.133\r\nStream size : 327 MiB (88%)\r\nWriting library : x264 core 112\r\nColor range : Limited\r\nColor primaries : BT.601 PAL\r\nTransfer characteristics : BT.470 System B, BT.470 System G\r\nMatrix coefficients : BT.601\r\n\r\nAudio\r\nID : 1\r\nFormat : AAC\r\nFormat/Info : Advanced Audio Codec\r\nFormat profile : LC\r\nCodec ID : 40\r\nDuration : 47 min 11 s\r\nBit rate mode : Variable\r\nBit rate : 128 kb/s\r\nMaximum bit rate : 576 kb/s\r\nChannel(s) : 2 channels\r\nChannel positions : Front: L R\r\nSampling rate : 48.0 kHz\r\nFrame rate : 46.875 FPS (1024 spf)\r\nCompression mode : Lossy\r\nStream size : 43.2 MiB (12%)","torrent":{"xt":"urn:btih:6b2cecc8874e40baf2768431a1324ce927751a57","amp;dn":"See+No+Evil+-+S01E03+-+Neighborhood+Watch","amp;tr":["udp%3A%2F%2Ftracker.leechers-paradise.org%3A6969","udp%3A%2F%2Fzer0day.ch%3A1337","udp%3A%2F%2Fopen.demonii.com%3A1337","udp%3A%2F%2Ftracker.coppersurfer.tk%3A6969","udp%3A%2F%2Fexodus.desync.com%3A6969"],"infoHash":"6b2cecc8874e40baf2768431a1324ce927751a57","infoHashBuffer":{"type":"Buffer","data":[107,44,236,200,135,78,64,186,242,118,132,49,161,50,76,233,39,117,26,87]},"announce":[],"urlList":[]}}